<svg xmlns="http://www.w3.org/2000/svg" viewBox="0 0 555.62 557.08"><defs><style>.cls-1{fill:#fff;}</style></defs><g id="Capa_2" data-name="Capa 2"><g id="Capa_1-2" data-name="Capa 1"><path class="cls-1" d="M156.85,263.88C177,163.82,247.08,114.93,327,140.5c56.3,18,88.17,58.73,97.09,115.66,9.71,62-11.39,114.41-63.45,149.83-57.86,39.38-121,45.16-184.06,12.42C110,383.87,77.66,325.07,75.06,252.18,69.92,108.51,203.26-.49,348.2,27.25c93.74,17.94,161.46,68.94,191.6,161.68,32.27,99.29,15.34,191.25-52.27,271-78.7,92.87-207,121.91-317.36,75.09C57.22,487.12-10.13,373.8,1.25,250.82c15.84-171.25,193-290.11,356-238.76a33.4,33.4,0,0,1,15.47,9.88c-32.24-3.28-64.8-11.24-96.67-9C104.09,24.77.85,200.84,77.69,349.52c38.14,73.79,100.72,112.75,183.11,113,69.38.24,125.11-31.56,161.67-91.38,57.28-93.71,9.95-217.62-92.79-246.12C240.78,100.41,153.67,167.13,156.85,263.88Z"/></g></g></svg>